<svg width="1920" height="501" viewBox="0 0 1920 501" fill="none" xmlns="http://www.w3.org/2000/svg">
<circle cx="1085.5" cy="93.5" r="93.5" fill="#303095"/>
<path d="M221.5 263.29C169.9 229.69 52.3333 305.29 0 347.29V501.29H1952C1962.17 426.623 1976.4 270.59 1952 243.79C1921.5 210.29 1865 305.29 1806 327.79C1747 350.29 1744.5 277.29 1680 204.29C1615.5 131.289 1548.5 310.79 1473 347.29C1397.5 383.79 1366.5 310.79 1249 243.79C1131.5 176.79 1117.5 308.29 1033.5 375.29C949.5 442.29 958 347.29 896.5 277.29C835 207.29 776 302.79 708.5 347.29C641 391.79 599.5 310.79 552 277.29C504.5 243.79 437 316.79 361.5 347.29C286 377.79 286 305.29 221.5 263.29Z" fill="#303095"/>
</svg>
