<svg width="1920" height="1263" viewBox="0 0 1920 1263" fill="none" xmlns="http://www.w3.org/2000/svg">
<rect width="1920" height="1263" fill="#F1F2F6"/>
<g filter="url(#filter0_i_515_210)">
<path d="M1913.21 175.957C1941.76 180.331 1965.74 196.564 1991.21 210.199C2018.33 224.718 2047.89 235.315 2067.86 258.744C2090.24 285.014 2104.79 316.964 2111.13 350.917C2118.41 389.919 2128.63 434.689 2106.88 467.844C2085.09 501.039 2036.17 499.297 2001.33 518.258C1966.31 537.313 1940.92 577.277 1901.15 579.796C1861.09 582.333 1820.35 560.937 1793.06 531.447C1767.42 503.74 1771.99 460.821 1758.41 425.569C1746.84 395.515 1719.48 371.375 1719.01 339.165C1718.53 306.614 1737.86 277.65 1755.86 250.548C1773.42 224.105 1793.25 197.842 1821.91 184.256C1850.01 170.935 1882.48 171.248 1913.21 175.957Z" fill="#DFE4EA"/>
</g>
<g filter="url(#filter1_i_515_210)">
<path d="M35.2105 611.957C63.7584 616.331 87.7426 632.564 113.214 646.199C140.334 660.718 169.892 671.315 189.857 694.744C212.244 721.014 226.793 752.964 233.129 786.917C240.406 825.919 250.631 870.689 228.875 903.844C207.094 937.039 158.17 935.297 123.326 954.258C88.3104 973.313 62.9204 1013.28 23.1514 1015.8C-16.9113 1018.33 -57.6471 996.937 -84.9402 967.447C-110.584 939.74 -106.011 896.821 -119.587 861.569C-131.162 831.515 -158.522 807.375 -158.991 775.165C-159.466 742.614 -140.143 713.65 -122.14 686.548C-104.575 660.105 -84.749 633.842 -56.0903 620.256C-27.9893 606.935 4.47963 607.248 35.2105 611.957Z" fill="#DFE4EA"/>
</g>
<defs>
<filter id="filter0_i_515_210" x="1719" y="173" width="401" height="423" filterUnits="userSpaceOnUse" color-interpolation-filters="sRGB">
<feFlood flood-opacity="0" result="BackgroundImageFix"/>
<feBlend mode="normal" in="SourceGraphic" in2="BackgroundImageFix" result="shape"/>
<feColorMatrix in="SourceAlpha" type="matrix" values="0 0 0 0 0 0 0 0 0 0 0 0 0 0 0 0 0 0 127 0" result="hardAlpha"/>
<feOffset dy="16"/>
<feGaussianBlur stdDeviation="16"/>
<feComposite in2="hardAlpha" operator="arithmetic" k2="-1" k3="1"/>
<feColorMatrix type="matrix" values="0 0 0 0 0 0 0 0 0 0 0 0 0 0 0 0 0 0 0.1 0"/>
<feBlend mode="normal" in2="shape" result="effect1_innerShadow_515_210"/>
</filter>
<filter id="filter1_i_515_210" x="-159" y="609" width="401" height="423" filterUnits="userSpaceOnUse" color-interpolation-filters="sRGB">
<feFlood flood-opacity="0" result="BackgroundImageFix"/>
<feBlend mode="normal" in="SourceGraphic" in2="BackgroundImageFix" result="shape"/>
<feColorMatrix in="SourceAlpha" type="matrix" values="0 0 0 0 0 0 0 0 0 0 0 0 0 0 0 0 0 0 127 0" result="hardAlpha"/>
<feOffset dy="16"/>
<feGaussianBlur stdDeviation="16"/>
<feComposite in2="hardAlpha" operator="arithmetic" k2="-1" k3="1"/>
<feColorMatrix type="matrix" values="0 0 0 0 0 0 0 0 0 0 0 0 0 0 0 0 0 0 0.1 0"/>
<feBlend mode="normal" in2="shape" result="effect1_innerShadow_515_210"/>
</filter>
</defs>
</svg>
