<svg width="56" height="56" viewBox="0 0 56 56" fill="none" xmlns="http://www.w3.org/2000/svg">
<path d="M6.99983 40.2496V48.9996H15.7498L41.5565 23.1696L32.8065 14.4196L6.99983 40.2496ZM52.7565 42.8396L42.8398 52.7563L30.7065 40.6229L34.8365 36.4929L37.1698 38.8262L42.9332 33.0396L46.2465 36.3529L42.8398 39.6663L45.3132 41.9996L48.6265 38.7329L52.7565 42.8396ZM15.4232 25.2696L3.24316 13.1596L13.1598 3.24292L17.2665 7.37292L11.5032 13.1596L13.9998 15.6329L19.7398 9.84625L23.0532 13.1596L19.7398 16.4496L22.0732 18.7829L15.4232 25.2696ZM48.3232 16.3329C49.2332 15.4229 49.2332 13.9996 48.3232 13.0429L42.8632 7.67625C41.9998 6.76625 40.4832 6.76625 39.5732 7.67625L35.2798 11.9463L44.0298 20.6963L48.3232 16.3329Z" fill="url(#paint0_linear_89_385)"/>
<defs>
<linearGradient id="paint0_linear_89_385" x1="27.9998" y1="3.24292" x2="27.9998" y2="52.7563" gradientUnits="userSpaceOnUse">
<stop stop-color="#2D2D85"/>
<stop offset="1" stop-color="#4A4AC9"/>
</linearGradient>
</defs>
</svg>
