<svg width="56" height="56" viewBox="0 0 56 56" fill="none" xmlns="http://www.w3.org/2000/svg">
<path d="M30.3988 4.66864C32.1015 4.66211 33.8042 4.67922 35.5064 4.71998L35.9591 4.73631C36.4818 4.75498 36.9974 4.77831 37.6204 4.80631C40.1031 4.92298 41.7971 5.31498 43.2834 5.89131C44.8234 6.48398 46.1208 7.28664 47.4181 8.58398C48.6043 9.74972 49.5223 11.1599 50.1084 12.7163C50.6848 14.2026 51.0768 15.899 51.1934 18.3816C51.2214 19.0023 51.2448 19.5203 51.2634 20.043L51.2774 20.4956C51.3189 22.1971 51.3368 23.899 51.3311 25.601L51.3334 27.3416V30.3983C51.3392 32.101 51.3213 33.8038 51.2798 35.506L51.2658 35.9586C51.2471 36.4813 51.2238 36.997 51.1958 37.62C51.0791 40.1026 50.6824 41.7966 50.1084 43.283C49.5243 44.8411 48.606 46.2524 47.4181 47.4176C46.2513 48.6037 44.8405 49.5217 43.2834 50.108C41.7971 50.6843 40.1031 51.0763 37.6204 51.193C36.9974 51.221 36.4818 51.2443 35.9591 51.263L35.5064 51.277C33.8042 51.3185 32.1015 51.3363 30.3988 51.3306L28.6581 51.333H25.6038C23.901 51.3387 22.1983 51.3208 20.4961 51.2793L20.0434 51.2653C19.4895 51.2452 18.9357 51.2219 18.3821 51.1953C15.8994 51.0786 14.2054 50.682 12.7168 50.108C11.1597 49.5231 9.74931 48.6049 8.58442 47.4176C7.39686 46.2516 6.47794 44.8406 5.89175 43.283C5.31542 41.7966 4.92342 40.1026 4.80675 37.62C4.78076 37.0663 4.75743 36.5125 4.73675 35.9586L4.72509 35.506C4.68207 33.8038 4.66262 32.1011 4.66675 30.3983V25.601C4.66024 23.899 4.67735 22.1971 4.71809 20.4956L4.73442 20.043C4.75309 19.5203 4.77642 19.0023 4.80442 18.3816C4.92108 15.8966 5.31308 14.205 5.88942 12.7163C6.47595 11.1591 7.39667 9.74935 8.58675 8.58631C9.75084 7.39806 11.1603 6.47831 12.7168 5.89131C14.2054 5.31498 15.8971 4.92298 18.3821 4.80631L20.0434 4.73631L20.4961 4.72464C22.1975 4.68165 23.8995 4.6622 25.6014 4.66631L30.3988 4.66864ZM28.0001 16.3353C26.4543 16.3134 24.9195 16.599 23.485 17.1755C22.0505 17.7519 20.7449 18.6077 19.6441 19.6931C18.5432 20.7785 17.669 22.0719 17.0724 23.4981C16.4757 24.9243 16.1684 26.4548 16.1684 28.0008C16.1684 29.5468 16.4757 31.0773 17.0724 32.5035C17.669 33.9297 18.5432 35.2231 19.6441 36.3085C20.7449 37.3939 22.0505 38.2497 23.485 38.8262C24.9195 39.4026 26.4543 39.6882 28.0001 39.6663C31.0943 39.6663 34.0617 38.4371 36.2497 36.2492C38.4376 34.0613 39.6668 31.0938 39.6668 27.9996C39.6668 24.9055 38.4376 21.938 36.2497 19.7501C34.0617 17.5621 31.0943 16.3353 28.0001 16.3353ZM28.0001 21.002C28.9299 20.9848 29.8539 21.1532 30.7179 21.4971C31.582 21.8411 32.3689 22.3538 33.0326 23.0052C33.6963 23.6567 34.2235 24.4339 34.5835 25.2914C34.9434 26.149 35.1289 27.0696 35.129 27.9996C35.1292 28.9296 34.944 29.8503 34.5844 30.708C34.2247 31.5656 33.6977 32.343 33.0342 32.9947C32.3708 33.6464 31.5841 34.1593 30.7201 34.5036C29.8562 34.8478 28.9323 35.0165 28.0024 34.9996C26.1459 34.9996 24.3654 34.2621 23.0527 32.9494C21.7399 31.6366 21.0024 29.8562 21.0024 27.9996C21.0024 26.1431 21.7399 24.3626 23.0527 23.0499C24.3654 21.7371 26.1459 20.9996 28.0024 20.9996L28.0001 21.002ZM40.2501 12.8353C39.4973 12.8654 38.7854 13.1857 38.2635 13.7289C37.7416 14.2722 37.4501 14.9963 37.4501 15.7496C37.4501 16.503 37.7416 17.2271 38.2635 17.7704C38.7854 18.3136 39.4973 18.6338 40.2501 18.664C41.0236 18.664 41.7655 18.3567 42.3125 17.8097C42.8595 17.2627 43.1668 16.5209 43.1668 15.7473C43.1668 14.9738 42.8595 14.2319 42.3125 13.6849C41.7655 13.1379 41.0236 12.8306 40.2501 12.8306V12.8353Z" fill="url(#paint0_linear_89_393)"/>
<defs>
<linearGradient id="paint0_linear_89_393" x1="27.9999" y1="4.66577" x2="27.9999" y2="51.334" gradientUnits="userSpaceOnUse">
<stop stop-color="#2D2D85"/>
<stop offset="1" stop-color="#4A4AC9"/>
</linearGradient>
</defs>
</svg>
