<svg width="56" height="56" viewBox="0 0 56 56" fill="none" xmlns="http://www.w3.org/2000/svg">
<path d="M30.3986 4.66889C32.1013 4.66235 33.8041 4.67947 35.5063 4.72022L35.959 4.73655C36.4816 4.75522 36.9973 4.77855 37.6203 4.80655C40.103 4.92322 41.797 5.31522 43.2833 5.89155C44.8233 6.48422 46.1206 7.28689 47.418 8.58422C48.6042 9.74997 49.5222 11.1601 50.1083 12.7166C50.6846 14.2029 51.0766 15.8992 51.1933 18.3819C51.2213 19.0026 51.2446 19.5206 51.2633 20.0432L51.2773 20.4959C51.3188 22.1973 51.3366 23.8993 51.331 25.6012L51.3333 27.3419V30.3986C51.339 32.1013 51.3212 33.804 51.2796 35.5062L51.2656 35.9589C51.247 36.4816 51.2236 36.9972 51.1956 37.6202C51.079 40.1029 50.6823 41.7969 50.1083 43.2832C49.5241 44.8413 48.6059 46.2526 47.418 47.4179C46.2512 48.604 44.8404 49.522 43.2833 50.1082C41.797 50.6846 40.103 51.0766 37.6203 51.1932C36.9973 51.2212 36.4816 51.2446 35.959 51.2632L35.5063 51.2772C33.8041 51.3187 32.1014 51.3366 30.3986 51.3309L28.658 51.3332H25.6036C23.9009 51.339 22.1982 51.3211 20.496 51.2796L20.0433 51.2656C19.4894 51.2455 18.9356 51.2221 18.382 51.1956C15.8993 51.0789 14.2053 50.6822 12.7166 50.1082C11.1596 49.5234 9.74918 48.6051 8.5843 47.4179C7.39674 46.2519 6.47782 44.8409 5.89163 43.2832C5.3153 41.7969 4.9233 40.1029 4.80663 37.6202C4.78064 37.0666 4.75731 36.5128 4.73663 35.9589L4.72496 35.5062C4.68194 33.804 4.6625 32.1013 4.66663 30.3986V25.6012C4.66012 23.8993 4.67723 22.1973 4.71796 20.4959L4.7343 20.0432C4.75296 19.5206 4.7763 19.0026 4.8043 18.3819C4.92096 15.8969 5.31296 14.2052 5.8893 12.7166C6.47583 11.1593 7.39655 9.74959 8.58663 8.58655C9.75072 7.39831 11.1602 6.47856 12.7166 5.89155C14.2053 5.31522 15.897 4.92322 18.382 4.80655L20.0433 4.73655L20.496 4.72489C22.1974 4.68189 23.8993 4.66244 25.6013 4.66655L30.3986 4.66889ZM28 16.3356C26.4541 16.3137 24.9194 16.5993 23.4849 17.1757C22.0504 17.7521 20.7448 18.6079 19.6439 19.6933C18.5431 20.7788 17.6689 22.0721 17.0722 23.4983C16.4756 24.9245 16.1683 26.4551 16.1683 28.0011C16.1683 29.547 16.4756 31.0776 17.0722 32.5038C17.6689 33.93 18.5431 35.2233 19.6439 36.3088C20.7448 37.3942 22.0504 38.25 23.4849 38.8264C24.9194 39.4028 26.4541 39.6884 28 39.6666C31.0942 39.6666 34.0616 38.4374 36.2495 36.2495C38.4375 34.0615 39.6666 31.0941 39.6666 27.9999C39.6666 24.9057 38.4375 21.9382 36.2495 19.7503C34.0616 17.5624 31.0942 16.3356 28 16.3356ZM28 21.0022C28.9298 20.9851 29.8538 21.1534 30.7178 21.4974C31.5819 21.8413 32.3687 22.354 33.0324 23.0055C33.6961 23.657 34.2234 24.4342 34.5833 25.2917C34.9433 26.1492 35.1288 27.0699 35.1289 27.9999C35.1291 28.9299 34.9439 29.8506 34.5842 30.7082C34.2246 31.5659 33.6976 32.3432 33.0341 32.9949C32.3706 33.6466 31.5839 34.1596 30.72 34.5038C29.856 34.8481 28.9322 35.0167 28.0023 34.9999C26.1458 34.9999 24.3653 34.2624 23.0525 32.9496C21.7398 31.6369 21.0023 29.8564 21.0023 27.9999C21.0023 26.1434 21.7398 24.3629 23.0525 23.0501C24.3653 21.7374 26.1458 20.9999 28.0023 20.9999L28 21.0022ZM40.25 12.8356C39.4972 12.8657 38.7853 13.1859 38.2634 13.7292C37.7414 14.2724 37.4499 14.9965 37.4499 15.7499C37.4499 16.5032 37.7414 17.2274 38.2634 17.7706C38.7853 18.3139 39.4972 18.6341 40.25 18.6642C41.0235 18.6642 41.7654 18.3569 42.3124 17.8099C42.8593 17.263 43.1666 16.5211 43.1666 15.7476C43.1666 14.974 42.8593 14.2321 42.3124 13.6852C41.7654 13.1382 41.0235 12.8309 40.25 12.8309V12.8356Z" fill="white"/>
</svg>
