<svg width="56" height="56" viewBox="0 0 56 56" fill="none" xmlns="http://www.w3.org/2000/svg">
<path d="M44.3333 7C45.571 7 46.758 7.49167 47.6332 8.36683C48.5083 9.242 49 10.429 49 11.6667V44.3333C49 45.571 48.5083 46.758 47.6332 47.6332C46.758 48.5083 45.571 49 44.3333 49H11.6667C10.429 49 9.242 48.5083 8.36683 47.6332C7.49167 46.758 7 45.571 7 44.3333V11.6667C7 10.429 7.49167 9.242 8.36683 8.36683C9.242 7.49167 10.429 7 11.6667 7H44.3333ZM43.1667 43.1667V30.8C43.1667 28.7826 42.3652 26.8478 40.9387 25.4213C39.5122 23.9947 37.5774 23.1933 35.56 23.1933C33.5767 23.1933 31.2667 24.4067 30.1467 26.2267V23.6367H23.6367V43.1667H30.1467V31.6633C30.1467 29.8667 31.5933 28.3967 33.39 28.3967C34.2564 28.3967 35.0873 28.7408 35.6999 29.3535C36.3125 29.9661 36.6567 30.797 36.6567 31.6633V43.1667H43.1667ZM16.0533 19.9733C17.093 19.9733 18.09 19.5603 18.8252 18.8252C19.5603 18.09 19.9733 17.093 19.9733 16.0533C19.9733 13.8833 18.2233 12.11 16.0533 12.11C15.0075 12.11 14.0045 12.5255 13.265 13.265C12.5255 14.0045 12.11 15.0075 12.11 16.0533C12.11 18.2233 13.8833 19.9733 16.0533 19.9733ZM19.2967 43.1667V23.6367H12.8333V43.1667H19.2967Z" fill="white"/>
</svg>
