<svg width="56" height="56" viewBox="0 0 56 56" fill="none" xmlns="http://www.w3.org/2000/svg">
<path d="M27.9996 34.1248C33.1348 34.1248 37.2965 30.0123 37.2965 24.9373V12.6873C37.2965 7.61226 33.1348 3.49976 27.9996 3.49976C22.8645 3.49976 18.7028 7.61226 18.7028 12.6873V24.9373C18.7028 30.0123 22.8645 34.1248 27.9996 34.1248ZM46.0465 24.8279C46.0465 24.5873 45.8496 24.3904 45.609 24.3904H42.3278C42.0871 24.3904 41.8903 24.5873 41.8903 24.8279C41.8903 32.5005 35.6723 38.7185 27.9996 38.7185C20.327 38.7185 14.109 32.5005 14.109 24.8279C14.109 24.5873 13.9121 24.3904 13.6715 24.3904H10.3903C10.1496 24.3904 9.95276 24.5873 9.95276 24.8279C9.95276 34.0537 16.8762 41.6662 25.8121 42.7435V48.3435H17.866C17.1168 48.3435 16.5153 49.1255 16.5153 50.0935V52.0623C16.5153 52.3029 16.6684 52.4998 16.8543 52.4998H39.1449C39.3309 52.4998 39.484 52.3029 39.484 52.0623V50.0935C39.484 49.1255 38.8824 48.3435 38.1332 48.3435H29.9684V42.7708C39.0082 41.7865 46.0465 34.1302 46.0465 24.8279Z" fill="url(#paint0_linear_89_391)"/>
<defs>
<linearGradient id="paint0_linear_89_391" x1="27.9996" y1="3.49976" x2="27.9996" y2="52.4998" gradientUnits="userSpaceOnUse">
<stop stop-color="#2D2D85"/>
<stop offset="1" stop-color="#4A4AC9"/>
</linearGradient>
</defs>
</svg>
