<svg width="56" height="56" viewBox="0 0 56 56" fill="none" xmlns="http://www.w3.org/2000/svg">
<g clip-path="url(#clip0_89_389)">
<path d="M48.9998 52.4998V13.9998H38.4998V3.49976H6.99976V52.4998H-0.000244141V55.9998H24.4998V45.4998H31.4998V55.9998H55.9998V52.4998H48.9998ZM20.9998 38.4998H13.9998V31.4998H20.9998V38.4998ZM20.9998 27.9998H13.9998V20.9998H20.9998V27.9998ZM20.9998 17.4998H13.9998V10.4998H20.9998V17.4998ZM31.4998 38.4998H24.4998V31.4998H31.4998V38.4998ZM31.4998 27.9998H24.4998V20.9998H31.4998V27.9998ZM31.4998 17.4998H24.4998V10.4998H31.4998V17.4998ZM45.4998 38.4998H38.4998V31.4998H45.4998V38.4998ZM45.4998 27.9998H38.4998V20.9998H45.4998V27.9998Z" fill="url(#paint0_linear_89_389)"/>
</g>
<defs>
<linearGradient id="paint0_linear_89_389" x1="27.9998" y1="3.49976" x2="27.9998" y2="55.9998" gradientUnits="userSpaceOnUse">
<stop stop-color="#2D2D85"/>
<stop offset="1" stop-color="#4A4AC9"/>
</linearGradient>
<clipPath id="clip0_89_389">
<rect width="56" height="56" fill="white"/>
</clipPath>
</defs>
</svg>
