<svg width="24" height="24" viewBox="0 0 24 24" fill="none" xmlns="http://www.w3.org/2000/svg">
<path d="M20.23 15.2598L17.69 14.9698C17.3914 14.9347 17.0886 14.9678 16.8046 15.0665C16.5206 15.1652 16.2626 15.327 16.05 15.5398L14.21 17.3798C11.3712 15.936 9.06382 13.6286 7.62004 10.7898L9.47004 8.93977C9.90004 8.50977 10.11 7.90977 10.04 7.29977L9.75004 4.77977C9.69335 4.29194 9.45923 3.842 9.09228 3.51561C8.72532 3.18923 8.25115 3.00918 7.76004 3.00977H6.03004C4.90004 3.00977 3.96004 3.94977 4.03004 5.07977C4.56004 13.6198 11.39 20.4398 19.92 20.9698C21.05 21.0398 21.99 20.0998 21.99 18.9698V17.2398C22 16.2298 21.24 15.3798 20.23 15.2598Z" fill="white"/>
</svg>
