<svg width="56" height="56" viewBox="0 0 56 56" fill="none" xmlns="http://www.w3.org/2000/svg">
<path d="M11.6665 49.0002C10.3832 49.0002 9.28421 48.5429 8.36955 47.6283C7.45488 46.7136 6.99833 45.6154 6.99988 44.3336V11.6669C6.99988 10.3836 7.45722 9.28458 8.37188 8.36991C9.28655 7.45525 10.3848 6.99869 11.6665 7.00025H44.3332C45.6165 7.00025 46.7155 7.45758 47.6302 8.37225C48.5449 9.28691 49.0014 10.3851 48.9999 11.6669V44.3336C48.9999 45.6169 48.5425 46.7159 47.6279 47.6306C46.7132 48.5452 45.615 49.0018 44.3332 49.0002H11.6665ZM13.9999 39.6669H41.9999L33.2499 28.0002L26.2499 37.3336L20.9999 30.3336L13.9999 39.6669Z" fill="url(#paint0_linear_89_387)"/>
<defs>
<linearGradient id="paint0_linear_89_387" x1="27.9999" y1="7.00024" x2="27.9999" y2="49.0003" gradientUnits="userSpaceOnUse">
<stop stop-color="#2D2D85"/>
<stop offset="1" stop-color="#4A4AC9"/>
</linearGradient>
</defs>
</svg>
