<svg width="56" height="56" viewBox="0 0 56 56" fill="none" xmlns="http://www.w3.org/2000/svg">
<path d="M28.0023 4.66504C40.8893 4.66504 51.3356 15.1114 51.3356 27.9984C51.3356 40.8854 40.8893 51.3317 28.0023 51.3317C23.8788 51.3384 19.8278 50.2471 16.2656 48.17L4.67831 51.3317L7.83298 39.7397C5.7542 36.1764 4.66209 32.1237 4.66898 27.9984C4.66898 15.1114 15.1153 4.66504 28.0023 4.66504ZM20.0503 17.0317L19.5836 17.0504C19.2815 17.0688 18.9863 17.1481 18.7156 17.2837C18.4625 17.427 18.2315 17.6062 18.0296 17.8157C17.7496 18.0794 17.591 18.308 17.4206 18.5297C16.5576 19.6518 16.0929 21.0294 16.1 22.445C16.1046 23.5884 16.4033 24.7014 16.87 25.742C17.8243 27.8467 19.3946 30.075 21.4666 32.14C21.966 32.637 22.456 33.1364 22.9833 33.6007C25.5579 35.8675 28.6259 37.5021 31.9433 38.3747L33.2686 38.5777C33.7003 38.601 34.132 38.5684 34.566 38.5474C35.2455 38.5123 35.9091 38.3283 36.5096 38.0084C36.8152 37.851 37.1134 37.6797 37.4033 37.495C37.4033 37.495 37.5036 37.4297 37.695 37.285C38.01 37.0517 38.2036 36.886 38.465 36.613C38.6586 36.4124 38.8266 36.1767 38.955 35.9084C39.137 35.528 39.319 34.8024 39.3936 34.198C39.4496 33.736 39.4333 33.484 39.4263 33.3277C39.417 33.078 39.2093 32.819 38.983 32.7094L37.625 32.1004C37.625 32.1004 35.595 31.216 34.3536 30.6514C34.2237 30.5947 34.0846 30.5622 33.943 30.5557C33.7833 30.5393 33.622 30.5573 33.4699 30.6084C33.3178 30.6595 33.1783 30.7426 33.061 30.852C33.0493 30.8474 32.893 30.9804 31.206 33.0244C31.1091 33.1545 30.9758 33.2528 30.8228 33.3068C30.6699 33.3609 30.5044 33.3681 30.3473 33.3277C30.1953 33.2869 30.0464 33.2355 29.9016 33.1737C29.6123 33.0524 29.512 33.0057 29.3136 32.9217C27.9745 32.3373 26.7346 31.5477 25.6386 30.5814C25.3446 30.3247 25.0716 30.0447 24.7916 29.774C23.8737 28.8949 23.0737 27.9004 22.4116 26.8154L22.274 26.5937C22.1751 26.4448 22.0951 26.2841 22.036 26.1154C21.9473 25.7724 22.1783 25.497 22.1783 25.497C22.1783 25.497 22.7453 24.8764 23.009 24.5404C23.2656 24.2137 23.4826 23.8964 23.6226 23.67C23.898 23.2267 23.9843 22.7717 23.8396 22.4194C23.1863 20.8234 22.5096 19.2344 21.8143 17.657C21.6766 17.3444 21.2683 17.1204 20.8973 17.076C20.7713 17.062 20.6453 17.048 20.5193 17.0387C20.206 17.0231 19.892 17.0263 19.579 17.048L20.048 17.0294L20.0503 17.0317Z" fill="white"/>
</svg>
